<mxfile host="app.diagrams.net" modified="2023-06-16T09:35:58.012Z" agent="Mozilla/5.0 (Windows NT 10.0; Win64; x64) AppleWebKit/537.36 (KHTML, like Gecko) Chrome/114.0.0.0 Safari/537.36" etag="M3FOpbuFFSO61Hp1qkOh" version="21.4.0" type="github">
  <diagram id="C5RBs43oDa-KdzZeNtuy" name="Page-1">
    <mxGraphModel dx="3404" dy="968" grid="1" gridSize="10" guides="1" tooltips="1" connect="1" arrows="1" fold="1" page="1" pageScale="1" pageWidth="827" pageHeight="1169" math="0" shadow="0">
      <root>
        <mxCell id="WIyWlLk6GJQsqaUBKTNV-0" />
        <mxCell id="WIyWlLk6GJQsqaUBKTNV-1" parent="WIyWlLk6GJQsqaUBKTNV-0" />
        <mxCell id="WIyWlLk6GJQsqaUBKTNV-2" value="" style="rounded=0;html=1;jettySize=auto;orthogonalLoop=1;fontSize=11;endArrow=block;endFill=0;endSize=8;strokeWidth=1;shadow=0;labelBackgroundColor=none;edgeStyle=orthogonalEdgeStyle;" parent="WIyWlLk6GJQsqaUBKTNV-1" source="WIyWlLk6GJQsqaUBKTNV-3" target="WIyWlLk6GJQsqaUBKTNV-6" edge="1">
          <mxGeometry relative="1" as="geometry" />
        </mxCell>
        <mxCell id="WIyWlLk6GJQsqaUBKTNV-3" value="Start" style="rounded=1;whiteSpace=wrap;html=1;fontSize=12;glass=0;strokeWidth=1;shadow=0;fillColor=#d5e8d4;strokeColor=#82b366;" parent="WIyWlLk6GJQsqaUBKTNV-1" vertex="1">
          <mxGeometry x="160" y="80" width="120" height="40" as="geometry" />
        </mxCell>
        <mxCell id="WIyWlLk6GJQsqaUBKTNV-4" value="If Entered" style="rounded=0;html=1;jettySize=auto;orthogonalLoop=1;fontSize=11;endArrow=block;endFill=0;endSize=8;strokeWidth=1;shadow=0;labelBackgroundColor=none;edgeStyle=orthogonalEdgeStyle;" parent="WIyWlLk6GJQsqaUBKTNV-1" source="WIyWlLk6GJQsqaUBKTNV-6" target="WIyWlLk6GJQsqaUBKTNV-10" edge="1">
          <mxGeometry x="0.1111" y="-40" relative="1" as="geometry">
            <mxPoint as="offset" />
          </mxGeometry>
        </mxCell>
        <mxCell id="WIyWlLk6GJQsqaUBKTNV-5" value="If not entered" style="edgeStyle=orthogonalEdgeStyle;rounded=0;html=1;jettySize=auto;orthogonalLoop=1;fontSize=11;endArrow=block;endFill=0;endSize=8;strokeWidth=1;shadow=0;labelBackgroundColor=none;" parent="WIyWlLk6GJQsqaUBKTNV-1" source="WIyWlLk6GJQsqaUBKTNV-6" target="WIyWlLk6GJQsqaUBKTNV-7" edge="1">
          <mxGeometry y="10" relative="1" as="geometry">
            <mxPoint as="offset" />
          </mxGeometry>
        </mxCell>
        <mxCell id="WIyWlLk6GJQsqaUBKTNV-6" value="Enter Table&lt;br&gt;Name" style="rhombus;whiteSpace=wrap;html=1;shadow=0;fontFamily=Helvetica;fontSize=12;align=center;strokeWidth=1;spacing=6;spacingTop=-4;fillColor=#fff2cc;strokeColor=#d6b656;" parent="WIyWlLk6GJQsqaUBKTNV-1" vertex="1">
          <mxGeometry x="160" y="165" width="120" height="90" as="geometry" />
        </mxCell>
        <mxCell id="WIyWlLk6GJQsqaUBKTNV-7" value="Alert for empty field" style="rounded=1;whiteSpace=wrap;html=1;fontSize=12;glass=0;strokeWidth=1;shadow=0;fillColor=#f8cecc;strokeColor=#b85450;" parent="WIyWlLk6GJQsqaUBKTNV-1" vertex="1">
          <mxGeometry x="370" y="190" width="120" height="40" as="geometry" />
        </mxCell>
        <mxCell id="WIyWlLk6GJQsqaUBKTNV-8" value="IF entered" style="rounded=0;html=1;jettySize=auto;orthogonalLoop=1;fontSize=11;endArrow=block;endFill=0;endSize=8;strokeWidth=1;shadow=0;labelBackgroundColor=none;edgeStyle=orthogonalEdgeStyle;entryX=0.5;entryY=0;entryDx=0;entryDy=0;" parent="WIyWlLk6GJQsqaUBKTNV-1" source="WIyWlLk6GJQsqaUBKTNV-10" target="-_lmY-xBmMYkseRW9HX6-0" edge="1">
          <mxGeometry x="0.2" y="30" relative="1" as="geometry">
            <mxPoint as="offset" />
            <mxPoint x="220" y="440" as="targetPoint" />
          </mxGeometry>
        </mxCell>
        <mxCell id="WIyWlLk6GJQsqaUBKTNV-9" value="If not entered" style="edgeStyle=orthogonalEdgeStyle;rounded=0;html=1;jettySize=auto;orthogonalLoop=1;fontSize=11;endArrow=block;endFill=0;endSize=8;strokeWidth=1;shadow=0;labelBackgroundColor=none;" parent="WIyWlLk6GJQsqaUBKTNV-1" source="WIyWlLk6GJQsqaUBKTNV-10" target="WIyWlLk6GJQsqaUBKTNV-12" edge="1">
          <mxGeometry y="10" relative="1" as="geometry">
            <mxPoint as="offset" />
          </mxGeometry>
        </mxCell>
        <mxCell id="WIyWlLk6GJQsqaUBKTNV-10" value="Enter Column &lt;br&gt;name and column type" style="rhombus;whiteSpace=wrap;html=1;shadow=0;fontFamily=Helvetica;fontSize=12;align=center;strokeWidth=1;spacing=6;spacingTop=-4;fillColor=#fff2cc;strokeColor=#d6b656;" parent="WIyWlLk6GJQsqaUBKTNV-1" vertex="1">
          <mxGeometry x="155" y="290" width="130" height="100" as="geometry" />
        </mxCell>
        <mxCell id="WIyWlLk6GJQsqaUBKTNV-12" value="Alert for empty field" style="rounded=1;whiteSpace=wrap;html=1;fontSize=12;glass=0;strokeWidth=1;shadow=0;fillColor=#f8cecc;strokeColor=#b85450;" parent="WIyWlLk6GJQsqaUBKTNV-1" vertex="1">
          <mxGeometry x="370" y="320" width="120" height="40" as="geometry" />
        </mxCell>
        <mxCell id="-_lmY-xBmMYkseRW9HX6-1" style="edgeStyle=orthogonalEdgeStyle;rounded=0;orthogonalLoop=1;jettySize=auto;html=1;entryX=0;entryY=0.5;entryDx=0;entryDy=0;" parent="WIyWlLk6GJQsqaUBKTNV-1" source="-_lmY-xBmMYkseRW9HX6-0" target="WIyWlLk6GJQsqaUBKTNV-10" edge="1">
          <mxGeometry relative="1" as="geometry">
            <Array as="points">
              <mxPoint x="70" y="495" />
              <mxPoint x="70" y="340" />
            </Array>
          </mxGeometry>
        </mxCell>
        <mxCell id="-_lmY-xBmMYkseRW9HX6-4" value="" style="edgeStyle=orthogonalEdgeStyle;rounded=0;orthogonalLoop=1;jettySize=auto;html=1;" parent="WIyWlLk6GJQsqaUBKTNV-1" source="-_lmY-xBmMYkseRW9HX6-0" target="-_lmY-xBmMYkseRW9HX6-3" edge="1">
          <mxGeometry relative="1" as="geometry" />
        </mxCell>
        <mxCell id="-_lmY-xBmMYkseRW9HX6-0" value="Add More&amp;nbsp;&lt;br&gt;Columns" style="rhombus;whiteSpace=wrap;html=1;fillColor=#fff2cc;strokeColor=#d6b656;" parent="WIyWlLk6GJQsqaUBKTNV-1" vertex="1">
          <mxGeometry x="160" y="440" width="120" height="110" as="geometry" />
        </mxCell>
        <mxCell id="-_lmY-xBmMYkseRW9HX6-2" value="Yes , Add more" style="text;html=1;align=center;verticalAlign=middle;resizable=0;points=[];autosize=1;strokeColor=none;fillColor=none;" parent="WIyWlLk6GJQsqaUBKTNV-1" vertex="1">
          <mxGeometry x="70" y="400" width="100" height="30" as="geometry" />
        </mxCell>
        <mxCell id="-_lmY-xBmMYkseRW9HX6-7" value="" style="edgeStyle=orthogonalEdgeStyle;rounded=0;orthogonalLoop=1;jettySize=auto;html=1;" parent="WIyWlLk6GJQsqaUBKTNV-1" source="-_lmY-xBmMYkseRW9HX6-3" edge="1">
          <mxGeometry relative="1" as="geometry">
            <mxPoint x="220" y="730" as="targetPoint" />
          </mxGeometry>
        </mxCell>
        <mxCell id="-_lmY-xBmMYkseRW9HX6-3" value="Save Data" style="whiteSpace=wrap;html=1;fillColor=#d5e8d4;strokeColor=#82b366;" parent="WIyWlLk6GJQsqaUBKTNV-1" vertex="1">
          <mxGeometry x="160" y="610" width="120" height="30" as="geometry" />
        </mxCell>
        <mxCell id="-_lmY-xBmMYkseRW9HX6-5" value="Save Provided Info" style="text;html=1;align=center;verticalAlign=middle;resizable=0;points=[];autosize=1;strokeColor=none;fillColor=none;" parent="WIyWlLk6GJQsqaUBKTNV-1" vertex="1">
          <mxGeometry x="220" y="568" width="120" height="30" as="geometry" />
        </mxCell>
        <mxCell id="-_lmY-xBmMYkseRW9HX6-8" value="Redirected to Operations screen" style="text;html=1;align=center;verticalAlign=middle;resizable=0;points=[];autosize=1;strokeColor=none;fillColor=none;" parent="WIyWlLk6GJQsqaUBKTNV-1" vertex="1">
          <mxGeometry x="219" y="650" width="200" height="30" as="geometry" />
        </mxCell>
        <mxCell id="-_lmY-xBmMYkseRW9HX6-9" value="" style="endArrow=none;html=1;rounded=0;" parent="WIyWlLk6GJQsqaUBKTNV-1" edge="1">
          <mxGeometry width="50" height="50" relative="1" as="geometry">
            <mxPoint x="-650" y="730" as="sourcePoint" />
            <mxPoint x="1210" y="730" as="targetPoint" />
          </mxGeometry>
        </mxCell>
        <mxCell id="-_lmY-xBmMYkseRW9HX6-10" value="" style="endArrow=classic;html=1;rounded=0;entryX=0.5;entryY=0;entryDx=0;entryDy=0;" parent="WIyWlLk6GJQsqaUBKTNV-1" target="-_lmY-xBmMYkseRW9HX6-14" edge="1">
          <mxGeometry width="50" height="50" relative="1" as="geometry">
            <mxPoint x="-150" y="730" as="sourcePoint" />
            <mxPoint x="10" y="800" as="targetPoint" />
          </mxGeometry>
        </mxCell>
        <mxCell id="-_lmY-xBmMYkseRW9HX6-11" value="" style="endArrow=classic;html=1;rounded=0;entryX=0.5;entryY=0;entryDx=0;entryDy=0;" parent="WIyWlLk6GJQsqaUBKTNV-1" target="-_lmY-xBmMYkseRW9HX6-15" edge="1">
          <mxGeometry width="50" height="50" relative="1" as="geometry">
            <mxPoint x="150" y="730" as="sourcePoint" />
            <mxPoint x="155" y="800" as="targetPoint" />
          </mxGeometry>
        </mxCell>
        <mxCell id="-_lmY-xBmMYkseRW9HX6-12" value="" style="endArrow=classic;html=1;rounded=0;entryX=0.5;entryY=0;entryDx=0;entryDy=0;" parent="WIyWlLk6GJQsqaUBKTNV-1" target="-_lmY-xBmMYkseRW9HX6-16" edge="1">
          <mxGeometry width="50" height="50" relative="1" as="geometry">
            <mxPoint x="800" y="730" as="sourcePoint" />
            <mxPoint x="300" y="800" as="targetPoint" />
          </mxGeometry>
        </mxCell>
        <mxCell id="-_lmY-xBmMYkseRW9HX6-13" value="" style="endArrow=classic;html=1;rounded=0;entryX=0.5;entryY=0;entryDx=0;entryDy=0;" parent="WIyWlLk6GJQsqaUBKTNV-1" target="-_lmY-xBmMYkseRW9HX6-18" edge="1">
          <mxGeometry width="50" height="50" relative="1" as="geometry">
            <mxPoint x="1030" y="730" as="sourcePoint" />
            <mxPoint x="429.58000000000004" y="800" as="targetPoint" />
          </mxGeometry>
        </mxCell>
        <mxCell id="26U39ZKC2mWOHKfWvAKI-32" style="edgeStyle=orthogonalEdgeStyle;rounded=0;orthogonalLoop=1;jettySize=auto;html=1;entryX=0.5;entryY=0;entryDx=0;entryDy=0;" edge="1" parent="WIyWlLk6GJQsqaUBKTNV-1" source="-_lmY-xBmMYkseRW9HX6-14" target="26U39ZKC2mWOHKfWvAKI-20">
          <mxGeometry relative="1" as="geometry" />
        </mxCell>
        <mxCell id="-_lmY-xBmMYkseRW9HX6-14" value="&lt;span style=&quot;font-style: normal;&quot;&gt;Update &lt;br&gt;Operation&lt;/span&gt;" style="rounded=0;whiteSpace=wrap;html=1;fontStyle=2;fillColor=#e1d5e7;strokeColor=#9673a6;" parent="WIyWlLk6GJQsqaUBKTNV-1" vertex="1">
          <mxGeometry x="-201" y="850" width="100" height="60" as="geometry" />
        </mxCell>
        <mxCell id="26U39ZKC2mWOHKfWvAKI-34" style="edgeStyle=orthogonalEdgeStyle;rounded=0;orthogonalLoop=1;jettySize=auto;html=1;" edge="1" parent="WIyWlLk6GJQsqaUBKTNV-1" source="-_lmY-xBmMYkseRW9HX6-15">
          <mxGeometry relative="1" as="geometry">
            <mxPoint x="150" y="930" as="targetPoint" />
          </mxGeometry>
        </mxCell>
        <mxCell id="-_lmY-xBmMYkseRW9HX6-15" value="&lt;span style=&quot;font-style: normal;&quot;&gt;Delete &lt;br&gt;Operation&lt;/span&gt;" style="rounded=0;whiteSpace=wrap;html=1;fontStyle=2;fillColor=#e1d5e7;strokeColor=#9673a6;" parent="WIyWlLk6GJQsqaUBKTNV-1" vertex="1">
          <mxGeometry x="100" y="800" width="100" height="60" as="geometry" />
        </mxCell>
        <mxCell id="26U39ZKC2mWOHKfWvAKI-61" value="" style="edgeStyle=orthogonalEdgeStyle;rounded=0;orthogonalLoop=1;jettySize=auto;html=1;" edge="1" parent="WIyWlLk6GJQsqaUBKTNV-1" source="-_lmY-xBmMYkseRW9HX6-16" target="26U39ZKC2mWOHKfWvAKI-60">
          <mxGeometry relative="1" as="geometry" />
        </mxCell>
        <mxCell id="-_lmY-xBmMYkseRW9HX6-16" value="&lt;span style=&quot;font-style: normal;&quot;&gt;Read &lt;br&gt;Operation&lt;/span&gt;" style="rounded=0;whiteSpace=wrap;html=1;fontStyle=2;fillColor=#e1d5e7;strokeColor=#9673a6;" parent="WIyWlLk6GJQsqaUBKTNV-1" vertex="1">
          <mxGeometry x="750" y="800" width="100" height="60" as="geometry" />
        </mxCell>
        <mxCell id="26U39ZKC2mWOHKfWvAKI-77" value="" style="edgeStyle=orthogonalEdgeStyle;rounded=0;orthogonalLoop=1;jettySize=auto;html=1;" edge="1" parent="WIyWlLk6GJQsqaUBKTNV-1" source="-_lmY-xBmMYkseRW9HX6-18" target="26U39ZKC2mWOHKfWvAKI-76">
          <mxGeometry relative="1" as="geometry" />
        </mxCell>
        <mxCell id="-_lmY-xBmMYkseRW9HX6-18" value="&lt;span style=&quot;font-style: normal;&quot;&gt;Special Query Operation like join etc.&lt;/span&gt;" style="rounded=0;whiteSpace=wrap;html=1;fontStyle=2;fillColor=#e1d5e7;strokeColor=#9673a6;" parent="WIyWlLk6GJQsqaUBKTNV-1" vertex="1">
          <mxGeometry x="980" y="800" width="100" height="60" as="geometry" />
        </mxCell>
        <mxCell id="-_lmY-xBmMYkseRW9HX6-19" value="" style="endArrow=classic;html=1;rounded=0;entryX=0.5;entryY=0;entryDx=0;entryDy=0;" parent="WIyWlLk6GJQsqaUBKTNV-1" target="-_lmY-xBmMYkseRW9HX6-20" edge="1">
          <mxGeometry width="50" height="50" relative="1" as="geometry">
            <mxPoint x="1210" y="730" as="sourcePoint" />
            <mxPoint x="560" y="800" as="targetPoint" />
          </mxGeometry>
        </mxCell>
        <mxCell id="26U39ZKC2mWOHKfWvAKI-13" style="edgeStyle=orthogonalEdgeStyle;rounded=0;orthogonalLoop=1;jettySize=auto;html=1;entryX=1;entryY=0;entryDx=0;entryDy=0;exitX=1;exitY=0.5;exitDx=0;exitDy=0;" edge="1" parent="WIyWlLk6GJQsqaUBKTNV-1" source="-_lmY-xBmMYkseRW9HX6-20" target="WIyWlLk6GJQsqaUBKTNV-6">
          <mxGeometry relative="1" as="geometry">
            <Array as="points">
              <mxPoint x="1290" y="830" />
              <mxPoint x="1290" y="150" />
              <mxPoint x="250" y="150" />
            </Array>
          </mxGeometry>
        </mxCell>
        <mxCell id="-_lmY-xBmMYkseRW9HX6-20" value="&lt;span style=&quot;font-style: normal;&quot;&gt;Add More &lt;br&gt;Tables&lt;/span&gt;" style="rounded=0;whiteSpace=wrap;html=1;fontStyle=2;fillColor=#e1d5e7;strokeColor=#9673a6;" parent="WIyWlLk6GJQsqaUBKTNV-1" vertex="1">
          <mxGeometry x="1160" y="800" width="100" height="60" as="geometry" />
        </mxCell>
        <mxCell id="-_lmY-xBmMYkseRW9HX6-21" value="( Below operations can be shown with the help of multiple buttons )" style="text;html=1;align=center;verticalAlign=middle;resizable=0;points=[];autosize=1;strokeColor=none;fillColor=none;" parent="WIyWlLk6GJQsqaUBKTNV-1" vertex="1">
          <mxGeometry x="-160" y="680" width="380" height="30" as="geometry" />
        </mxCell>
        <mxCell id="-_lmY-xBmMYkseRW9HX6-22" value="" style="endArrow=classic;html=1;rounded=0;entryX=0.5;entryY=0;entryDx=0;entryDy=0;" parent="WIyWlLk6GJQsqaUBKTNV-1" target="-_lmY-xBmMYkseRW9HX6-23" edge="1">
          <mxGeometry width="50" height="50" relative="1" as="geometry">
            <mxPoint x="-650" y="730" as="sourcePoint" />
            <mxPoint x="-160" y="800" as="targetPoint" />
          </mxGeometry>
        </mxCell>
        <mxCell id="26U39ZKC2mWOHKfWvAKI-1" value="" style="edgeStyle=orthogonalEdgeStyle;rounded=0;orthogonalLoop=1;jettySize=auto;html=1;" edge="1" parent="WIyWlLk6GJQsqaUBKTNV-1" source="-_lmY-xBmMYkseRW9HX6-23" target="26U39ZKC2mWOHKfWvAKI-0">
          <mxGeometry relative="1" as="geometry" />
        </mxCell>
        <mxCell id="-_lmY-xBmMYkseRW9HX6-23" value="&lt;span style=&quot;font-style: normal;&quot;&gt;Insert &lt;br&gt;Operation&lt;/span&gt;" style="rounded=0;whiteSpace=wrap;html=1;fontStyle=2;fillColor=#e1d5e7;strokeColor=#9673a6;" parent="WIyWlLk6GJQsqaUBKTNV-1" vertex="1">
          <mxGeometry x="-700" y="850" width="100" height="60" as="geometry" />
        </mxCell>
        <mxCell id="26U39ZKC2mWOHKfWvAKI-3" value="" style="edgeStyle=orthogonalEdgeStyle;rounded=0;orthogonalLoop=1;jettySize=auto;html=1;" edge="1" parent="WIyWlLk6GJQsqaUBKTNV-1" source="26U39ZKC2mWOHKfWvAKI-0" target="26U39ZKC2mWOHKfWvAKI-2">
          <mxGeometry relative="1" as="geometry" />
        </mxCell>
        <mxCell id="26U39ZKC2mWOHKfWvAKI-6" value="" style="edgeStyle=orthogonalEdgeStyle;rounded=0;orthogonalLoop=1;jettySize=auto;html=1;entryX=0.5;entryY=0;entryDx=0;entryDy=0;" edge="1" parent="WIyWlLk6GJQsqaUBKTNV-1" source="26U39ZKC2mWOHKfWvAKI-0" target="26U39ZKC2mWOHKfWvAKI-9">
          <mxGeometry relative="1" as="geometry">
            <mxPoint x="-160" y="1090" as="targetPoint" />
          </mxGeometry>
        </mxCell>
        <mxCell id="26U39ZKC2mWOHKfWvAKI-0" value="&lt;span style=&quot;font-style: normal;&quot;&gt;Enter &lt;br&gt;Column &lt;br&gt;Name and &lt;br&gt;Column&lt;br&gt;&amp;nbsp;Values&lt;/span&gt;" style="rhombus;whiteSpace=wrap;html=1;rounded=0;fontStyle=2;fillColor=#fff2cc;strokeColor=#d6b656;" vertex="1" parent="WIyWlLk6GJQsqaUBKTNV-1">
          <mxGeometry x="-715" y="1005" width="130" height="110" as="geometry" />
        </mxCell>
        <mxCell id="26U39ZKC2mWOHKfWvAKI-2" value="Alert for empty field" style="whiteSpace=wrap;html=1;rounded=0;fontStyle=2;fillColor=#f8cecc;strokeColor=#b85450;" vertex="1" parent="WIyWlLk6GJQsqaUBKTNV-1">
          <mxGeometry x="-930" y="1030" width="120" height="60" as="geometry" />
        </mxCell>
        <mxCell id="26U39ZKC2mWOHKfWvAKI-4" value="If not entered" style="text;html=1;align=center;verticalAlign=middle;resizable=0;points=[];autosize=1;strokeColor=none;fillColor=none;" vertex="1" parent="WIyWlLk6GJQsqaUBKTNV-1">
          <mxGeometry x="-805" y="1020" width="90" height="30" as="geometry" />
        </mxCell>
        <mxCell id="26U39ZKC2mWOHKfWvAKI-7" value="if Entered" style="text;html=1;align=center;verticalAlign=middle;resizable=0;points=[];autosize=1;strokeColor=none;fillColor=none;" vertex="1" parent="WIyWlLk6GJQsqaUBKTNV-1">
          <mxGeometry x="-645" y="1130" width="70" height="30" as="geometry" />
        </mxCell>
        <mxCell id="26U39ZKC2mWOHKfWvAKI-11" value="" style="edgeStyle=orthogonalEdgeStyle;rounded=0;orthogonalLoop=1;jettySize=auto;html=1;" edge="1" parent="WIyWlLk6GJQsqaUBKTNV-1" source="26U39ZKC2mWOHKfWvAKI-9" target="26U39ZKC2mWOHKfWvAKI-10">
          <mxGeometry relative="1" as="geometry" />
        </mxCell>
        <mxCell id="26U39ZKC2mWOHKfWvAKI-15" value="" style="edgeStyle=orthogonalEdgeStyle;rounded=0;orthogonalLoop=1;jettySize=auto;html=1;" edge="1" parent="WIyWlLk6GJQsqaUBKTNV-1" source="26U39ZKC2mWOHKfWvAKI-9" target="26U39ZKC2mWOHKfWvAKI-14">
          <mxGeometry relative="1" as="geometry" />
        </mxCell>
        <mxCell id="26U39ZKC2mWOHKfWvAKI-9" value="Process the&lt;br&gt;&amp;nbsp;provided &lt;br&gt;data and run query accordingly" style="rhombus;whiteSpace=wrap;html=1;fillColor=#fff2cc;strokeColor=#d6b656;" vertex="1" parent="WIyWlLk6GJQsqaUBKTNV-1">
          <mxGeometry x="-725" y="1169" width="150" height="130" as="geometry" />
        </mxCell>
        <mxCell id="26U39ZKC2mWOHKfWvAKI-10" value="Data inserted Successfully" style="whiteSpace=wrap;html=1;fillColor=#d5e8d4;strokeColor=#82b366;" vertex="1" parent="WIyWlLk6GJQsqaUBKTNV-1">
          <mxGeometry x="-710" y="1380" width="120" height="60" as="geometry" />
        </mxCell>
        <mxCell id="26U39ZKC2mWOHKfWvAKI-12" value="Success" style="text;html=1;align=center;verticalAlign=middle;resizable=0;points=[];autosize=1;strokeColor=none;fillColor=none;" vertex="1" parent="WIyWlLk6GJQsqaUBKTNV-1">
          <mxGeometry x="-725" y="1320" width="70" height="30" as="geometry" />
        </mxCell>
        <mxCell id="26U39ZKC2mWOHKfWvAKI-17" style="edgeStyle=orthogonalEdgeStyle;rounded=0;orthogonalLoop=1;jettySize=auto;html=1;entryX=0;entryY=0;entryDx=0;entryDy=0;" edge="1" parent="WIyWlLk6GJQsqaUBKTNV-1" target="26U39ZKC2mWOHKfWvAKI-0">
          <mxGeometry relative="1" as="geometry">
            <mxPoint x="-950" y="1210" as="sourcePoint" />
            <Array as="points">
              <mxPoint x="-950" y="950" />
              <mxPoint x="-682" y="950" />
            </Array>
          </mxGeometry>
        </mxCell>
        <mxCell id="26U39ZKC2mWOHKfWvAKI-14" value="Provided data is in-complete , try again" style="whiteSpace=wrap;html=1;fillColor=#f8cecc;strokeColor=#b85450;" vertex="1" parent="WIyWlLk6GJQsqaUBKTNV-1">
          <mxGeometry x="-1010" y="1211.5" width="120" height="45" as="geometry" />
        </mxCell>
        <mxCell id="26U39ZKC2mWOHKfWvAKI-16" value="failed" style="text;html=1;align=center;verticalAlign=middle;resizable=0;points=[];autosize=1;strokeColor=none;fillColor=none;" vertex="1" parent="WIyWlLk6GJQsqaUBKTNV-1">
          <mxGeometry x="-830" y="1200" width="50" height="30" as="geometry" />
        </mxCell>
        <mxCell id="26U39ZKC2mWOHKfWvAKI-18" value="" style="edgeStyle=orthogonalEdgeStyle;rounded=0;orthogonalLoop=1;jettySize=auto;html=1;" edge="1" source="26U39ZKC2mWOHKfWvAKI-20" target="26U39ZKC2mWOHKfWvAKI-21" parent="WIyWlLk6GJQsqaUBKTNV-1">
          <mxGeometry relative="1" as="geometry" />
        </mxCell>
        <mxCell id="26U39ZKC2mWOHKfWvAKI-19" value="" style="edgeStyle=orthogonalEdgeStyle;rounded=0;orthogonalLoop=1;jettySize=auto;html=1;entryX=0.5;entryY=0;entryDx=0;entryDy=0;" edge="1" source="26U39ZKC2mWOHKfWvAKI-20" parent="WIyWlLk6GJQsqaUBKTNV-1">
          <mxGeometry relative="1" as="geometry">
            <mxPoint x="-151.00000000000045" y="1179" as="targetPoint" />
          </mxGeometry>
        </mxCell>
        <mxCell id="26U39ZKC2mWOHKfWvAKI-20" value="&lt;span style=&quot;font-style: normal;&quot;&gt;Enter &lt;br&gt;Column &lt;br&gt;Name and &lt;br&gt;Column&lt;br&gt;&amp;nbsp;Values&lt;/span&gt;" style="rhombus;whiteSpace=wrap;html=1;rounded=0;fontStyle=2;fillColor=#fff2cc;strokeColor=#d6b656;" vertex="1" parent="WIyWlLk6GJQsqaUBKTNV-1">
          <mxGeometry x="-216" y="1015" width="130" height="110" as="geometry" />
        </mxCell>
        <mxCell id="26U39ZKC2mWOHKfWvAKI-21" value="&lt;span style=&quot;font-style: normal;&quot;&gt;Alert for empty field&lt;/span&gt;" style="whiteSpace=wrap;html=1;rounded=0;fontStyle=2;fillColor=#f8cecc;strokeColor=#b85450;" vertex="1" parent="WIyWlLk6GJQsqaUBKTNV-1">
          <mxGeometry x="-426" y="1050" width="120" height="40" as="geometry" />
        </mxCell>
        <mxCell id="26U39ZKC2mWOHKfWvAKI-22" value="If not entered" style="text;html=1;align=center;verticalAlign=middle;resizable=0;points=[];autosize=1;strokeColor=none;fillColor=none;" vertex="1" parent="WIyWlLk6GJQsqaUBKTNV-1">
          <mxGeometry x="-301" y="1045" width="90" height="30" as="geometry" />
        </mxCell>
        <mxCell id="26U39ZKC2mWOHKfWvAKI-23" value="if Entered" style="text;html=1;align=center;verticalAlign=middle;resizable=0;points=[];autosize=1;strokeColor=none;fillColor=none;" vertex="1" parent="WIyWlLk6GJQsqaUBKTNV-1">
          <mxGeometry x="-146" y="1140" width="70" height="30" as="geometry" />
        </mxCell>
        <mxCell id="26U39ZKC2mWOHKfWvAKI-24" value="" style="edgeStyle=orthogonalEdgeStyle;rounded=0;orthogonalLoop=1;jettySize=auto;html=1;" edge="1" target="26U39ZKC2mWOHKfWvAKI-27" parent="WIyWlLk6GJQsqaUBKTNV-1">
          <mxGeometry relative="1" as="geometry">
            <mxPoint x="-151.00000000000045" y="1309" as="sourcePoint" />
          </mxGeometry>
        </mxCell>
        <mxCell id="26U39ZKC2mWOHKfWvAKI-25" value="" style="edgeStyle=orthogonalEdgeStyle;rounded=0;orthogonalLoop=1;jettySize=auto;html=1;" edge="1" parent="WIyWlLk6GJQsqaUBKTNV-1">
          <mxGeometry relative="1" as="geometry">
            <mxPoint x="-226.00000000000045" y="1244" as="sourcePoint" />
            <mxPoint x="-390.99999999999955" y="1244" as="targetPoint" />
          </mxGeometry>
        </mxCell>
        <mxCell id="26U39ZKC2mWOHKfWvAKI-26" value="Process the&lt;br&gt;&amp;nbsp;provided &lt;br&gt;data and run query accordingly" style="rhombus;whiteSpace=wrap;html=1;fillColor=#fff2cc;strokeColor=#d6b656;" vertex="1" parent="WIyWlLk6GJQsqaUBKTNV-1">
          <mxGeometry x="-226" y="1179" width="150" height="130" as="geometry" />
        </mxCell>
        <mxCell id="26U39ZKC2mWOHKfWvAKI-27" value="Data updated Successfully" style="whiteSpace=wrap;html=1;fillColor=#d5e8d4;strokeColor=#82b366;" vertex="1" parent="WIyWlLk6GJQsqaUBKTNV-1">
          <mxGeometry x="-211" y="1390" width="120" height="60" as="geometry" />
        </mxCell>
        <mxCell id="26U39ZKC2mWOHKfWvAKI-28" value="Success" style="text;html=1;align=center;verticalAlign=middle;resizable=0;points=[];autosize=1;strokeColor=none;fillColor=none;" vertex="1" parent="WIyWlLk6GJQsqaUBKTNV-1">
          <mxGeometry x="-226" y="1330" width="70" height="30" as="geometry" />
        </mxCell>
        <mxCell id="26U39ZKC2mWOHKfWvAKI-29" style="edgeStyle=orthogonalEdgeStyle;rounded=0;orthogonalLoop=1;jettySize=auto;html=1;entryX=0;entryY=0;entryDx=0;entryDy=0;" edge="1" target="26U39ZKC2mWOHKfWvAKI-20" parent="WIyWlLk6GJQsqaUBKTNV-1">
          <mxGeometry relative="1" as="geometry">
            <mxPoint x="-451" y="1220" as="sourcePoint" />
            <Array as="points">
              <mxPoint x="-451" y="960" />
              <mxPoint x="-183" y="960" />
            </Array>
          </mxGeometry>
        </mxCell>
        <mxCell id="26U39ZKC2mWOHKfWvAKI-30" value="Provided data is in-complete or wrong, try again" style="whiteSpace=wrap;html=1;fillColor=#f8cecc;strokeColor=#b85450;" vertex="1" parent="WIyWlLk6GJQsqaUBKTNV-1">
          <mxGeometry x="-511" y="1221.5" width="120" height="58.5" as="geometry" />
        </mxCell>
        <mxCell id="26U39ZKC2mWOHKfWvAKI-31" value="failed" style="text;html=1;align=center;verticalAlign=middle;resizable=0;points=[];autosize=1;strokeColor=none;fillColor=none;" vertex="1" parent="WIyWlLk6GJQsqaUBKTNV-1">
          <mxGeometry x="-331" y="1210" width="50" height="30" as="geometry" />
        </mxCell>
        <mxCell id="26U39ZKC2mWOHKfWvAKI-33" value="this column &lt;br&gt;value will be&lt;br&gt;&amp;nbsp;the new one&amp;nbsp;&amp;nbsp;" style="text;html=1;align=center;verticalAlign=middle;resizable=0;points=[];autosize=1;strokeColor=none;fillColor=none;" vertex="1" parent="WIyWlLk6GJQsqaUBKTNV-1">
          <mxGeometry x="-260" y="1090" width="100" height="60" as="geometry" />
        </mxCell>
        <mxCell id="26U39ZKC2mWOHKfWvAKI-35" value="" style="endArrow=none;html=1;rounded=0;" edge="1" parent="WIyWlLk6GJQsqaUBKTNV-1">
          <mxGeometry width="50" height="50" relative="1" as="geometry">
            <mxPoint x="80" y="930" as="sourcePoint" />
            <mxPoint x="220" y="930" as="targetPoint" />
          </mxGeometry>
        </mxCell>
        <mxCell id="26U39ZKC2mWOHKfWvAKI-36" value="" style="endArrow=classic;html=1;rounded=0;entryX=0.5;entryY=0;entryDx=0;entryDy=0;" edge="1" parent="WIyWlLk6GJQsqaUBKTNV-1" target="26U39ZKC2mWOHKfWvAKI-38">
          <mxGeometry width="50" height="50" relative="1" as="geometry">
            <mxPoint x="80" y="930" as="sourcePoint" />
            <mxPoint x="80" y="1020" as="targetPoint" />
          </mxGeometry>
        </mxCell>
        <mxCell id="26U39ZKC2mWOHKfWvAKI-37" value="" style="endArrow=classic;html=1;rounded=0;entryX=0.5;entryY=0;entryDx=0;entryDy=0;" edge="1" parent="WIyWlLk6GJQsqaUBKTNV-1" target="26U39ZKC2mWOHKfWvAKI-39">
          <mxGeometry width="50" height="50" relative="1" as="geometry">
            <mxPoint x="220" y="930" as="sourcePoint" />
            <mxPoint x="220" y="1000" as="targetPoint" />
          </mxGeometry>
        </mxCell>
        <mxCell id="26U39ZKC2mWOHKfWvAKI-44" style="edgeStyle=orthogonalEdgeStyle;rounded=0;orthogonalLoop=1;jettySize=auto;html=1;entryX=0;entryY=0;entryDx=0;entryDy=0;" edge="1" parent="WIyWlLk6GJQsqaUBKTNV-1" source="26U39ZKC2mWOHKfWvAKI-38" target="26U39ZKC2mWOHKfWvAKI-42">
          <mxGeometry relative="1" as="geometry">
            <Array as="points">
              <mxPoint x="80" y="1106" />
            </Array>
          </mxGeometry>
        </mxCell>
        <mxCell id="26U39ZKC2mWOHKfWvAKI-38" value="Column" style="rounded=0;whiteSpace=wrap;html=1;" vertex="1" parent="WIyWlLk6GJQsqaUBKTNV-1">
          <mxGeometry x="20" y="1005" width="120" height="35" as="geometry" />
        </mxCell>
        <mxCell id="26U39ZKC2mWOHKfWvAKI-45" style="edgeStyle=orthogonalEdgeStyle;rounded=0;orthogonalLoop=1;jettySize=auto;html=1;entryX=1;entryY=0;entryDx=0;entryDy=0;" edge="1" parent="WIyWlLk6GJQsqaUBKTNV-1" source="26U39ZKC2mWOHKfWvAKI-39" target="26U39ZKC2mWOHKfWvAKI-42">
          <mxGeometry relative="1" as="geometry">
            <Array as="points">
              <mxPoint x="220" y="1106" />
            </Array>
          </mxGeometry>
        </mxCell>
        <mxCell id="26U39ZKC2mWOHKfWvAKI-39" value="Value" style="rounded=0;whiteSpace=wrap;html=1;" vertex="1" parent="WIyWlLk6GJQsqaUBKTNV-1">
          <mxGeometry x="160" y="1005" width="120" height="35" as="geometry" />
        </mxCell>
        <mxCell id="26U39ZKC2mWOHKfWvAKI-40" style="edgeStyle=orthogonalEdgeStyle;rounded=0;orthogonalLoop=1;jettySize=auto;html=1;exitX=0.5;exitY=1;exitDx=0;exitDy=0;" edge="1" parent="WIyWlLk6GJQsqaUBKTNV-1" source="26U39ZKC2mWOHKfWvAKI-38" target="26U39ZKC2mWOHKfWvAKI-38">
          <mxGeometry relative="1" as="geometry" />
        </mxCell>
        <mxCell id="26U39ZKC2mWOHKfWvAKI-41" style="edgeStyle=orthogonalEdgeStyle;rounded=0;orthogonalLoop=1;jettySize=auto;html=1;exitX=0.5;exitY=1;exitDx=0;exitDy=0;" edge="1" parent="WIyWlLk6GJQsqaUBKTNV-1" source="26U39ZKC2mWOHKfWvAKI-38" target="26U39ZKC2mWOHKfWvAKI-38">
          <mxGeometry relative="1" as="geometry" />
        </mxCell>
        <mxCell id="26U39ZKC2mWOHKfWvAKI-47" value="" style="edgeStyle=orthogonalEdgeStyle;rounded=0;orthogonalLoop=1;jettySize=auto;html=1;" edge="1" parent="WIyWlLk6GJQsqaUBKTNV-1" source="26U39ZKC2mWOHKfWvAKI-42" target="26U39ZKC2mWOHKfWvAKI-46">
          <mxGeometry relative="1" as="geometry" />
        </mxCell>
        <mxCell id="26U39ZKC2mWOHKfWvAKI-49" value="" style="edgeStyle=orthogonalEdgeStyle;rounded=0;orthogonalLoop=1;jettySize=auto;html=1;" edge="1" parent="WIyWlLk6GJQsqaUBKTNV-1" source="26U39ZKC2mWOHKfWvAKI-42" target="26U39ZKC2mWOHKfWvAKI-48">
          <mxGeometry relative="1" as="geometry" />
        </mxCell>
        <mxCell id="26U39ZKC2mWOHKfWvAKI-42" value="Enter column or&lt;br&gt;&amp;nbsp;value of column&amp;nbsp;" style="rhombus;whiteSpace=wrap;html=1;fillColor=#fff2cc;strokeColor=#d6b656;" vertex="1" parent="WIyWlLk6GJQsqaUBKTNV-1">
          <mxGeometry x="75" y="1070.5" width="150" height="141" as="geometry" />
        </mxCell>
        <mxCell id="26U39ZKC2mWOHKfWvAKI-54" style="edgeStyle=orthogonalEdgeStyle;rounded=0;orthogonalLoop=1;jettySize=auto;html=1;entryX=0;entryY=0.5;entryDx=0;entryDy=0;" edge="1" parent="WIyWlLk6GJQsqaUBKTNV-1" source="26U39ZKC2mWOHKfWvAKI-46" target="26U39ZKC2mWOHKfWvAKI-53">
          <mxGeometry relative="1" as="geometry" />
        </mxCell>
        <mxCell id="26U39ZKC2mWOHKfWvAKI-58" style="edgeStyle=orthogonalEdgeStyle;rounded=0;orthogonalLoop=1;jettySize=auto;html=1;entryX=0.5;entryY=0;entryDx=0;entryDy=0;" edge="1" parent="WIyWlLk6GJQsqaUBKTNV-1" source="26U39ZKC2mWOHKfWvAKI-46" target="26U39ZKC2mWOHKfWvAKI-57">
          <mxGeometry relative="1" as="geometry" />
        </mxCell>
        <mxCell id="26U39ZKC2mWOHKfWvAKI-46" value="Process the &lt;br&gt;provided &lt;br&gt;data and run query accordingly" style="rhombus;whiteSpace=wrap;html=1;fillColor=#fff2cc;strokeColor=#d6b656;" vertex="1" parent="WIyWlLk6GJQsqaUBKTNV-1">
          <mxGeometry x="75" y="1256.5" width="150" height="141" as="geometry" />
        </mxCell>
        <mxCell id="26U39ZKC2mWOHKfWvAKI-48" value="Alert for empty field" style="whiteSpace=wrap;html=1;fillColor=#f8cecc;strokeColor=#b85450;" vertex="1" parent="WIyWlLk6GJQsqaUBKTNV-1">
          <mxGeometry x="320" y="1121" width="120" height="39" as="geometry" />
        </mxCell>
        <mxCell id="26U39ZKC2mWOHKfWvAKI-51" value="If not entered" style="text;html=1;align=center;verticalAlign=middle;resizable=0;points=[];autosize=1;strokeColor=none;fillColor=none;" vertex="1" parent="WIyWlLk6GJQsqaUBKTNV-1">
          <mxGeometry x="220" y="1110" width="90" height="30" as="geometry" />
        </mxCell>
        <mxCell id="26U39ZKC2mWOHKfWvAKI-52" value="if Entered" style="text;html=1;align=center;verticalAlign=middle;resizable=0;points=[];autosize=1;strokeColor=none;fillColor=none;" vertex="1" parent="WIyWlLk6GJQsqaUBKTNV-1">
          <mxGeometry x="85" y="1211.5" width="70" height="30" as="geometry" />
        </mxCell>
        <mxCell id="26U39ZKC2mWOHKfWvAKI-56" style="edgeStyle=orthogonalEdgeStyle;rounded=0;orthogonalLoop=1;jettySize=auto;html=1;" edge="1" parent="WIyWlLk6GJQsqaUBKTNV-1" source="26U39ZKC2mWOHKfWvAKI-53">
          <mxGeometry relative="1" as="geometry">
            <mxPoint x="150" y="890" as="targetPoint" />
            <Array as="points">
              <mxPoint x="500" y="1327" />
              <mxPoint x="500" y="890" />
            </Array>
          </mxGeometry>
        </mxCell>
        <mxCell id="26U39ZKC2mWOHKfWvAKI-53" value="Provided data is in-complete or wrong, try again" style="whiteSpace=wrap;html=1;fillColor=#f8cecc;strokeColor=#b85450;" vertex="1" parent="WIyWlLk6GJQsqaUBKTNV-1">
          <mxGeometry x="293" y="1297.75" width="120" height="58.5" as="geometry" />
        </mxCell>
        <mxCell id="26U39ZKC2mWOHKfWvAKI-55" value="failed" style="text;html=1;align=center;verticalAlign=middle;resizable=0;points=[];autosize=1;strokeColor=none;fillColor=none;" vertex="1" parent="WIyWlLk6GJQsqaUBKTNV-1">
          <mxGeometry x="225" y="1290" width="50" height="30" as="geometry" />
        </mxCell>
        <mxCell id="26U39ZKC2mWOHKfWvAKI-57" value="Data deleted Successfully" style="whiteSpace=wrap;html=1;fillColor=#d5e8d4;strokeColor=#82b366;" vertex="1" parent="WIyWlLk6GJQsqaUBKTNV-1">
          <mxGeometry x="90" y="1450" width="120" height="60" as="geometry" />
        </mxCell>
        <mxCell id="26U39ZKC2mWOHKfWvAKI-59" value="Success" style="text;html=1;align=center;verticalAlign=middle;resizable=0;points=[];autosize=1;strokeColor=none;fillColor=none;" vertex="1" parent="WIyWlLk6GJQsqaUBKTNV-1">
          <mxGeometry x="85" y="1420" width="70" height="30" as="geometry" />
        </mxCell>
        <mxCell id="26U39ZKC2mWOHKfWvAKI-63" value="" style="edgeStyle=orthogonalEdgeStyle;rounded=0;orthogonalLoop=1;jettySize=auto;html=1;" edge="1" parent="WIyWlLk6GJQsqaUBKTNV-1" source="26U39ZKC2mWOHKfWvAKI-60" target="26U39ZKC2mWOHKfWvAKI-62">
          <mxGeometry relative="1" as="geometry" />
        </mxCell>
        <mxCell id="26U39ZKC2mWOHKfWvAKI-66" value="" style="edgeStyle=orthogonalEdgeStyle;rounded=0;orthogonalLoop=1;jettySize=auto;html=1;" edge="1" parent="WIyWlLk6GJQsqaUBKTNV-1" source="26U39ZKC2mWOHKfWvAKI-60" target="26U39ZKC2mWOHKfWvAKI-65">
          <mxGeometry relative="1" as="geometry" />
        </mxCell>
        <mxCell id="26U39ZKC2mWOHKfWvAKI-60" value="&lt;span style=&quot;font-style: normal;&quot;&gt;Enter column name &lt;br&gt;or table name to see data accordingly&lt;/span&gt;" style="rhombus;whiteSpace=wrap;html=1;fillColor=#fff2cc;strokeColor=#d6b656;rounded=0;fontStyle=2;" vertex="1" parent="WIyWlLk6GJQsqaUBKTNV-1">
          <mxGeometry x="715" y="910" width="170" height="130" as="geometry" />
        </mxCell>
        <mxCell id="26U39ZKC2mWOHKfWvAKI-62" value="&lt;span style=&quot;font-style: normal;&quot;&gt;Alert for empty field&lt;/span&gt;" style="whiteSpace=wrap;html=1;fillColor=#f8cecc;strokeColor=#b85450;rounded=0;fontStyle=2;" vertex="1" parent="WIyWlLk6GJQsqaUBKTNV-1">
          <mxGeometry x="530" y="945" width="120" height="60" as="geometry" />
        </mxCell>
        <mxCell id="26U39ZKC2mWOHKfWvAKI-64" value="If not entered" style="text;html=1;align=center;verticalAlign=middle;resizable=0;points=[];autosize=1;strokeColor=none;fillColor=none;" vertex="1" parent="WIyWlLk6GJQsqaUBKTNV-1">
          <mxGeometry x="650" y="940" width="90" height="30" as="geometry" />
        </mxCell>
        <mxCell id="26U39ZKC2mWOHKfWvAKI-70" value="" style="edgeStyle=orthogonalEdgeStyle;rounded=0;orthogonalLoop=1;jettySize=auto;html=1;" edge="1" parent="WIyWlLk6GJQsqaUBKTNV-1" source="26U39ZKC2mWOHKfWvAKI-65" target="26U39ZKC2mWOHKfWvAKI-69">
          <mxGeometry relative="1" as="geometry" />
        </mxCell>
        <mxCell id="26U39ZKC2mWOHKfWvAKI-88" value="" style="edgeStyle=orthogonalEdgeStyle;rounded=0;orthogonalLoop=1;jettySize=auto;html=1;" edge="1" parent="WIyWlLk6GJQsqaUBKTNV-1" source="26U39ZKC2mWOHKfWvAKI-65" target="26U39ZKC2mWOHKfWvAKI-87">
          <mxGeometry relative="1" as="geometry" />
        </mxCell>
        <mxCell id="26U39ZKC2mWOHKfWvAKI-65" value="&lt;span style=&quot;font-style: normal;&quot;&gt;Process the&lt;br style=&quot;border-color: var(--border-color);&quot;&gt;provided&lt;br style=&quot;border-color: var(--border-color);&quot;&gt;data and run&lt;br&gt;&amp;nbsp;query accordingly&lt;/span&gt;" style="rhombus;whiteSpace=wrap;html=1;fillColor=#fff2cc;strokeColor=#d6b656;rounded=0;fontStyle=2;" vertex="1" parent="WIyWlLk6GJQsqaUBKTNV-1">
          <mxGeometry x="710" y="1082.5" width="180" height="145" as="geometry" />
        </mxCell>
        <mxCell id="26U39ZKC2mWOHKfWvAKI-67" value="if Entered" style="text;html=1;align=center;verticalAlign=middle;resizable=0;points=[];autosize=1;strokeColor=none;fillColor=none;" vertex="1" parent="WIyWlLk6GJQsqaUBKTNV-1">
          <mxGeometry x="730" y="1045" width="70" height="30" as="geometry" />
        </mxCell>
        <mxCell id="26U39ZKC2mWOHKfWvAKI-69" value="&lt;span style=&quot;font-style: normal;&quot;&gt;Operation &lt;br&gt;Successful&lt;/span&gt;" style="whiteSpace=wrap;html=1;fillColor=#d5e8d4;strokeColor=#82b366;rounded=0;fontStyle=2;" vertex="1" parent="WIyWlLk6GJQsqaUBKTNV-1">
          <mxGeometry x="740" y="1297" width="120" height="60" as="geometry" />
        </mxCell>
        <mxCell id="26U39ZKC2mWOHKfWvAKI-71" value="Current table will&lt;br&gt;&amp;nbsp;be picked &lt;br&gt;for operation" style="text;html=1;align=center;verticalAlign=middle;resizable=0;points=[];autosize=1;strokeColor=none;fillColor=none;" vertex="1" parent="WIyWlLk6GJQsqaUBKTNV-1">
          <mxGeometry x="-645" y="773" width="110" height="60" as="geometry" />
        </mxCell>
        <mxCell id="26U39ZKC2mWOHKfWvAKI-72" value="Current table will&lt;br&gt;&amp;nbsp;be picked &lt;br&gt;for operation" style="text;html=1;align=center;verticalAlign=middle;resizable=0;points=[];autosize=1;strokeColor=none;fillColor=none;" vertex="1" parent="WIyWlLk6GJQsqaUBKTNV-1">
          <mxGeometry x="-156" y="760" width="110" height="60" as="geometry" />
        </mxCell>
        <mxCell id="26U39ZKC2mWOHKfWvAKI-73" value="Current table will&lt;br&gt;&amp;nbsp;be picked &lt;br&gt;for operation" style="text;html=1;align=center;verticalAlign=middle;resizable=0;points=[];autosize=1;strokeColor=none;fillColor=none;" vertex="1" parent="WIyWlLk6GJQsqaUBKTNV-1">
          <mxGeometry x="155" y="740" width="110" height="60" as="geometry" />
        </mxCell>
        <mxCell id="26U39ZKC2mWOHKfWvAKI-74" value="User can &lt;br&gt;enter desired &lt;br&gt;table name&amp;nbsp;" style="text;html=1;align=center;verticalAlign=middle;resizable=0;points=[];autosize=1;strokeColor=none;fillColor=none;" vertex="1" parent="WIyWlLk6GJQsqaUBKTNV-1">
          <mxGeometry x="795" y="730" width="90" height="60" as="geometry" />
        </mxCell>
        <mxCell id="26U39ZKC2mWOHKfWvAKI-75" value="User can &lt;br&gt;enter desired &lt;br&gt;table name&amp;nbsp;" style="text;html=1;align=center;verticalAlign=middle;resizable=0;points=[];autosize=1;strokeColor=none;fillColor=none;" vertex="1" parent="WIyWlLk6GJQsqaUBKTNV-1">
          <mxGeometry x="1030" y="730" width="90" height="60" as="geometry" />
        </mxCell>
        <mxCell id="26U39ZKC2mWOHKfWvAKI-79" style="edgeStyle=orthogonalEdgeStyle;rounded=0;orthogonalLoop=1;jettySize=auto;html=1;" edge="1" parent="WIyWlLk6GJQsqaUBKTNV-1" source="26U39ZKC2mWOHKfWvAKI-76" target="26U39ZKC2mWOHKfWvAKI-78">
          <mxGeometry relative="1" as="geometry" />
        </mxCell>
        <mxCell id="26U39ZKC2mWOHKfWvAKI-83" value="" style="edgeStyle=orthogonalEdgeStyle;rounded=0;orthogonalLoop=1;jettySize=auto;html=1;" edge="1" parent="WIyWlLk6GJQsqaUBKTNV-1" source="26U39ZKC2mWOHKfWvAKI-76" target="26U39ZKC2mWOHKfWvAKI-82">
          <mxGeometry relative="1" as="geometry" />
        </mxCell>
        <mxCell id="26U39ZKC2mWOHKfWvAKI-76" value="&lt;span style=&quot;font-style: normal;&quot;&gt;Enter table &lt;br&gt;name or &lt;br&gt;column names&amp;nbsp;&lt;/span&gt;" style="rhombus;whiteSpace=wrap;html=1;fillColor=#fff2cc;strokeColor=#d6b656;rounded=0;fontStyle=2;" vertex="1" parent="WIyWlLk6GJQsqaUBKTNV-1">
          <mxGeometry x="960" y="920" width="140" height="110" as="geometry" />
        </mxCell>
        <mxCell id="26U39ZKC2mWOHKfWvAKI-78" value="&lt;span style=&quot;font-style: normal;&quot;&gt;Alert for empty field&lt;/span&gt;" style="whiteSpace=wrap;html=1;fillColor=#f8cecc;strokeColor=#b85450;rounded=0;fontStyle=2;" vertex="1" parent="WIyWlLk6GJQsqaUBKTNV-1">
          <mxGeometry x="1170" y="945" width="120" height="60" as="geometry" />
        </mxCell>
        <mxCell id="26U39ZKC2mWOHKfWvAKI-80" value="If not entered" style="text;html=1;align=center;verticalAlign=middle;resizable=0;points=[];autosize=1;strokeColor=none;fillColor=none;" vertex="1" parent="WIyWlLk6GJQsqaUBKTNV-1">
          <mxGeometry x="1080" y="945" width="90" height="30" as="geometry" />
        </mxCell>
        <mxCell id="26U39ZKC2mWOHKfWvAKI-86" value="" style="edgeStyle=orthogonalEdgeStyle;rounded=0;orthogonalLoop=1;jettySize=auto;html=1;" edge="1" parent="WIyWlLk6GJQsqaUBKTNV-1" source="26U39ZKC2mWOHKfWvAKI-82" target="26U39ZKC2mWOHKfWvAKI-85">
          <mxGeometry relative="1" as="geometry" />
        </mxCell>
        <mxCell id="26U39ZKC2mWOHKfWvAKI-94" style="edgeStyle=orthogonalEdgeStyle;rounded=0;orthogonalLoop=1;jettySize=auto;html=1;entryX=0;entryY=0.5;entryDx=0;entryDy=0;" edge="1" parent="WIyWlLk6GJQsqaUBKTNV-1" source="26U39ZKC2mWOHKfWvAKI-82" target="26U39ZKC2mWOHKfWvAKI-93">
          <mxGeometry relative="1" as="geometry" />
        </mxCell>
        <mxCell id="26U39ZKC2mWOHKfWvAKI-82" value="Process the&lt;br style=&quot;border-color: var(--border-color); font-style: normal;&quot;&gt;&lt;span style=&quot;font-style: normal;&quot;&gt;provided&lt;/span&gt;&lt;br style=&quot;border-color: var(--border-color); font-style: normal;&quot;&gt;&lt;span style=&quot;font-style: normal;&quot;&gt;data and run&lt;/span&gt;&lt;br style=&quot;border-color: var(--border-color); font-style: normal;&quot;&gt;&lt;span style=&quot;font-style: normal;&quot;&gt;&amp;nbsp;query accordingly&lt;/span&gt;" style="rhombus;whiteSpace=wrap;html=1;fillColor=#fff2cc;strokeColor=#d6b656;rounded=0;fontStyle=2;" vertex="1" parent="WIyWlLk6GJQsqaUBKTNV-1">
          <mxGeometry x="952.5" y="1070.25" width="155" height="149.5" as="geometry" />
        </mxCell>
        <mxCell id="26U39ZKC2mWOHKfWvAKI-84" value="if Entered" style="text;html=1;align=center;verticalAlign=middle;resizable=0;points=[];autosize=1;strokeColor=none;fillColor=none;" vertex="1" parent="WIyWlLk6GJQsqaUBKTNV-1">
          <mxGeometry x="1030" y="1040" width="70" height="30" as="geometry" />
        </mxCell>
        <mxCell id="26U39ZKC2mWOHKfWvAKI-85" value="Operation&lt;br style=&quot;border-color: var(--border-color); font-style: normal;&quot;&gt;&lt;span style=&quot;font-style: normal;&quot;&gt;Successful&lt;/span&gt;" style="whiteSpace=wrap;html=1;fillColor=#d5e8d4;strokeColor=#82b366;rounded=0;fontStyle=2;" vertex="1" parent="WIyWlLk6GJQsqaUBKTNV-1">
          <mxGeometry x="970" y="1270" width="120" height="60" as="geometry" />
        </mxCell>
        <mxCell id="26U39ZKC2mWOHKfWvAKI-89" style="edgeStyle=orthogonalEdgeStyle;rounded=0;orthogonalLoop=1;jettySize=auto;html=1;entryX=0.365;entryY=0.088;entryDx=0;entryDy=0;entryPerimeter=0;" edge="1" parent="WIyWlLk6GJQsqaUBKTNV-1" source="26U39ZKC2mWOHKfWvAKI-87" target="26U39ZKC2mWOHKfWvAKI-60">
          <mxGeometry relative="1" as="geometry">
            <Array as="points">
              <mxPoint x="520" y="1155" />
              <mxPoint x="520" y="921" />
            </Array>
          </mxGeometry>
        </mxCell>
        <mxCell id="26U39ZKC2mWOHKfWvAKI-87" value="Provided data is in-complete or wrong, try again" style="whiteSpace=wrap;html=1;fillColor=#f8cecc;strokeColor=#b85450;rounded=0;fontStyle=2;" vertex="1" parent="WIyWlLk6GJQsqaUBKTNV-1">
          <mxGeometry x="540" y="1125" width="120" height="60" as="geometry" />
        </mxCell>
        <mxCell id="26U39ZKC2mWOHKfWvAKI-90" value="failed" style="text;html=1;align=center;verticalAlign=middle;resizable=0;points=[];autosize=1;strokeColor=none;fillColor=none;" vertex="1" parent="WIyWlLk6GJQsqaUBKTNV-1">
          <mxGeometry x="665" y="1121" width="50" height="30" as="geometry" />
        </mxCell>
        <mxCell id="26U39ZKC2mWOHKfWvAKI-91" value="Success" style="text;html=1;align=center;verticalAlign=middle;resizable=0;points=[];autosize=1;strokeColor=none;fillColor=none;" vertex="1" parent="WIyWlLk6GJQsqaUBKTNV-1">
          <mxGeometry x="730" y="1240" width="70" height="30" as="geometry" />
        </mxCell>
        <mxCell id="26U39ZKC2mWOHKfWvAKI-92" value="Success" style="text;html=1;align=center;verticalAlign=middle;resizable=0;points=[];autosize=1;strokeColor=none;fillColor=none;" vertex="1" parent="WIyWlLk6GJQsqaUBKTNV-1">
          <mxGeometry x="960" y="1230" width="70" height="30" as="geometry" />
        </mxCell>
        <mxCell id="26U39ZKC2mWOHKfWvAKI-93" value="Provided data is in-complete or wrong, try again" style="whiteSpace=wrap;html=1;fillColor=#f8cecc;strokeColor=#b85450;rounded=0;fontStyle=2;" vertex="1" parent="WIyWlLk6GJQsqaUBKTNV-1">
          <mxGeometry x="1170" y="1115" width="120" height="60" as="geometry" />
        </mxCell>
        <mxCell id="26U39ZKC2mWOHKfWvAKI-95" value="failed" style="text;html=1;align=center;verticalAlign=middle;resizable=0;points=[];autosize=1;strokeColor=none;fillColor=none;" vertex="1" parent="WIyWlLk6GJQsqaUBKTNV-1">
          <mxGeometry x="1110" y="1115" width="50" height="30" as="geometry" />
        </mxCell>
      </root>
    </mxGraphModel>
  </diagram>
</mxfile>
